<svg xmlns="http://www.w3.org/2000/svg" viewBox="0 0 64 64"><defs><style>.cls-1,.cls-2{fill:#1a1a1a;}.cls-1{opacity:0;}.cls-3{fill:#e62e49;}.cls-4{fill:#fff;}.cls-5{fill:#ffbdc6;}.cls-6{fill:#37b9ff;}</style></defs><title>Clown face</title><g id="Layer_2" data-name="Layer 2"><g id="Rough"><rect class="cls-1" width="64" height="64"/><path class="cls-2" d="M62.37,19.65A8.19,8.19,0,0,0,63,12.87a9.53,9.53,0,0,0-2.31-9.6A9.42,9.42,0,0,0,50.58,1.18l-.21-.08A8.4,8.4,0,0,0,47.79.68a8.12,8.12,0,0,0-5.63,2.26A62.64,62.64,0,0,0,34,2.5H30.66A61.09,61.09,0,0,0,22,3.06,8.2,8.2,0,0,0,16.21.68a8.4,8.4,0,0,0-2.58.42l-.21.08A9.42,9.42,0,0,0,3.27,3.27,9.53,9.53,0,0,0,1,12.87a8.23,8.23,0,0,0,.73,6.89C.54,23.86.47,27.28.51,31.94.42,38.48.16,55.86,15,61.4c4.94,1.85,10.16,2.1,15.06,2.1h3.36c9.71,0,23.18-1.5,28-14.45,2-5.42,2.14-10.94,2.09-17A49.22,49.22,0,0,0,62.37,19.65Z"/><path class="cls-3" d="M12.25,10.18c.73,2.19,2.61,1.93,4.8,1.2s3.86-1.65,3.13-3.84a4.18,4.18,0,0,0-7.93,2.64Z"/><path class="cls-3" d="M5.72,18.47c1.64,1.63,3.2.55,4.83-1.08s2.71-3.2,1.08-4.83a4.18,4.18,0,0,0-5.91,5.91Z"/><path class="cls-3" d="M51.75,10.18c-.73,2.19-2.61,1.93-4.8,1.2s-3.86-1.65-3.13-3.84a4.18,4.18,0,0,1,7.93,2.64Z"/><path class="cls-3" d="M58.28,18.47c-1.64,1.63-3.2.55-4.83-1.08s-2.71-3.2-1.08-4.83a4.18,4.18,0,1,1,5.91,5.91Z"/><path class="cls-4" d="M59.49,32h0c.15-10.25-1.21-19.67-11.85-23.65C42.69,6.49,37.26,6.46,32,6.51h0C21.75,6.36,10.33,7.72,6.35,18.36,4.49,23.31,4.46,26.74,4.51,32h0C4.36,42.25,5.72,53.67,16.36,57.65c4.95,1.86,10.38,1.89,15.64,1.84h0c10.25.15,21.67-1.21,25.65-11.85C59.51,42.69,59.54,37.26,59.49,32Z"/><path class="cls-5" d="M32,54A46.35,46.35,0,0,1,6,45.79C7.48,51,10.52,55.47,16.36,57.65c4.95,1.86,10.38,1.89,15.64,1.84h0c10.25.15,21.67-1.21,25.65-11.85.25-.66.46-1.34.65-2A46.44,46.44,0,0,1,32,54Z"/><ellipse class="cls-5" cx="51" cy="39.49" rx="5.56" ry="3.55"/><ellipse class="cls-5" cx="13" cy="39.49" rx="5.56" ry="3.55"/><path class="cls-4" d="M44.5,40.65a9.28,9.28,0,1,1,9.28-9.28A9.29,9.29,0,0,1,44.5,40.65Z"/><path class="cls-6" d="M44.5,23.6a7.78,7.78,0,1,1-7.78,7.77A7.78,7.78,0,0,1,44.5,23.6m0-3A10.78,10.78,0,1,0,55.28,31.37,10.79,10.79,0,0,0,44.5,20.6Z"/><path class="cls-4" d="M19.5,40.65a9.28,9.28,0,1,1,9.28-9.28A9.29,9.29,0,0,1,19.5,40.65Z"/><path class="cls-6" d="M19.5,23.6a7.78,7.78,0,1,1-7.78,7.77A7.77,7.77,0,0,1,19.5,23.6m0-3A10.78,10.78,0,1,0,30.28,31.37,10.79,10.79,0,0,0,19.5,20.6Z"/><circle class="cls-2" cx="42.34" cy="31.37" r="4.52"/><circle class="cls-2" cx="21.66" cy="31.37" r="4.52"/><path class="cls-4" d="M32,55.27A15,15,0,0,1,21.38,51a2.63,2.63,0,0,1-.74-1.88,2.64,2.64,0,0,1,3.55-2.44,26.41,26.41,0,0,0,4,1.2,18.27,18.27,0,0,0,3.63.39H32a19.18,19.18,0,0,0,3.85-.41,30.71,30.71,0,0,0,4-1.16,2.81,2.81,0,0,1,.92-.17A2.64,2.64,0,0,1,42.64,51a13.31,13.31,0,0,1-4.9,3.23A15.73,15.73,0,0,1,32,55.27Z"/><path class="cls-3" d="M23.27,48a1.09,1.09,0,0,1,.4.07h0a27.17,27.17,0,0,0,4.15,1.25,20.21,20.21,0,0,0,3.94.42H32a20.63,20.63,0,0,0,4.13-.44,32.28,32.28,0,0,0,4.16-1.22h0a1.34,1.34,0,0,1,.39-.07,1.16,1.16,0,0,1,1.08.76A1.18,1.18,0,0,1,41.54,50a11.68,11.68,0,0,1-4.34,2.85,14.21,14.21,0,0,1-5.16,1h0A13.5,13.5,0,0,1,22.46,50a1.14,1.14,0,0,1,0-1.61,1.11,1.11,0,0,1,.79-.32m0-3h0a4.13,4.13,0,0,0-3,7A16.43,16.43,0,0,0,32,56.77H32a17.21,17.21,0,0,0,6.25-1.15A14.8,14.8,0,0,0,43.73,52a4.14,4.14,0,0,0-4.41-6.74,29.18,29.18,0,0,1-3.81,1.13,18,18,0,0,1-3.52.37H31.8a17,17,0,0,1-3.35-.36,25.52,25.52,0,0,1-3.69-1.12A4.16,4.16,0,0,0,23.27,45Z"/><ellipse class="cls-3" cx="19.34" cy="15.76" rx="4.66" ry="2.79" transform="translate(-1.3 1.75) rotate(-5)"/><ellipse class="cls-3" cx="44.66" cy="15.76" rx="2.79" ry="4.66" transform="translate(25.07 58.87) rotate(-85)"/><circle class="cls-3" cx="32" cy="37.43" r="7.49"/><path class="cls-3" d="M57.9,13.84c-2.14,2.14-4.19.73-6.33-1.41S48,8.24,50.16,6.1a5.47,5.47,0,1,1,7.74,7.74Z"/><path class="cls-3" d="M6.1,13.84c2.14,2.14,4.19.73,6.33-1.41S16,8.24,13.84,6.1A5.47,5.47,0,0,0,6.1,13.84Z"/></g></g></svg>