<svg xmlns="http://www.w3.org/2000/svg" viewBox="0 0 64 64"><defs><style>.cls-1,.cls-2{fill:#1a1a1a;}.cls-1{opacity:0;}.cls-3{fill:#9c3d29;}.cls-4{fill:#fec92b;}.cls-5{fill:#fdaf18;}.cls-6{fill:#fff;}.cls-7{fill:#c62d43;}.cls-8{fill:#bb5938;}.cls-9{fill:#de9c5a;}</style></defs><title>Cowboy hat face</title><g id="Layer_2" data-name="Layer 2"><g id="Rough"><rect class="cls-1" width="64" height="64"/><path class="cls-2" d="M62.24,14.13A5.58,5.58,0,0,0,57.87,12a6.09,6.09,0,0,0-.95.08c-1.59.27-3.28.52-5.06.74-.06-.14-.13-.28-.19-.41C48.78,6.49,45.74,3.17,42.38,2.3a5.83,5.83,0,0,0-1.48-.18,20.76,20.76,0,0,0-5.78,1.3c-.78.25-1.91.61-2.44.72-.54-.11-1.7-.49-2.49-.75A20.66,20.66,0,0,0,24.35,2a6,6,0,0,0-1.43.17c-3.42.85-6.57,4.2-9.64,10.24L13,13c-2.09-.25-4.09-.53-6-.86a6,6,0,0,0-1-.08,5.55,5.55,0,0,0-4.29,2,5.69,5.69,0,0,0-1.3,3.88,3.54,3.54,0,0,0,0,.46,34.08,34.08,0,0,0,5.6,15.77c0,.5,0,1,0,1.44-.08,5.45-.29,19.92,12.2,24.6A35.19,35.19,0,0,0,30.81,62h2.73C41.63,62,52.87,60.69,57,49.75c1.69-4.52,1.79-9.07,1.74-14,0-1,0-1.94,0-2.89a34.41,34.41,0,0,0,4.74-14.29A5.65,5.65,0,0,0,62.24,14.13Z"/><path class="cls-3" d="M32,22.6A79.08,79.08,0,0,1,4.51,18C5.91,32.76,17.68,44.26,32,44.26S58.06,32.76,59.46,18A79.09,79.09,0,0,1,32,22.6Z"/><path class="cls-4" d="M54.71,35.66h0c.12-8.31-1-17.57-9.6-20.79-4-1.51-8.42-1.53-12.68-1.49h0c-8.32-.12-17.57,1-20.8,9.6-1.5,4-1.53,8.42-1.49,12.68h0c-.12,8.31,1,17.57,9.6,20.8C23.76,58,28.16,58,32.43,58h0c8.31.12,17.56-1,20.79-9.6C54.73,44.33,54.75,39.93,54.71,35.66Z"/><path class="cls-5" d="M32.43,53.47a37.64,37.64,0,0,1-21.12-6.62c1.24,4.25,3.7,7.84,8.43,9.61C23.76,58,28.16,58,32.43,58h0c8.31.12,17.56-1,20.79-9.6.2-.54.38-1.09.53-1.64A37.67,37.67,0,0,1,32.43,53.47Z"/><ellipse class="cls-5" cx="47.83" cy="41.74" rx="4.51" ry="2.88"/><ellipse class="cls-5" cx="17.02" cy="41.74" rx="4.51" ry="2.88"/><path class="cls-6" d="M22.21,44.18c2.22,1.78,6,3,10.22,3s8-1.17,10.21-3c-3.2-.29-6.63-.45-10.21-.45S25.41,43.89,22.21,44.18Z"/><path class="cls-7" d="M32.53,50.92a15.41,15.41,0,0,0-7.39,1.78,12.07,12.07,0,0,0,14.66-.06A15.49,15.49,0,0,0,32.53,50.92Z"/><path class="cls-2" d="M42.65,44.18h0c-2.21,1.78-6,3-10.21,3s-8-1.17-10.22-3h0a1.63,1.63,0,0,0-1.43,2,12.09,12.09,0,0,0,4.37,6.48h0a15.41,15.41,0,0,1,7.39-1.78,15.49,15.49,0,0,1,7.27,1.72,12,12,0,0,0,4.28-6.42A1.63,1.63,0,0,0,42.65,44.18Z"/><path class="cls-8" d="M48.07,14.18c-1.6-3.29-4-7.32-6.7-8-1.64-.43-7,2-8.69,2s-7.11-2.49-8.79-2.07c-2.74.68-5.34,4.83-7,8.17,4.76.39,9.84.62,15.13.62C37.63,14.88,43,14.62,48.07,14.18Z"/><path class="cls-9" d="M50,18.62s-.72-2-1.89-4.44c-5,.44-10.44.7-16.09.7-5.29,0-10.37-.23-15.13-.62-1.21,2.38-2,4.36-2,4.36Z"/><circle class="cls-6" cx="42.56" cy="35.16" r="6.31"/><circle class="cls-6" cx="22.29" cy="35.16" r="6.31"/><circle class="cls-2" cx="40.81" cy="35.16" r="3.67"/><circle class="cls-2" cx="24.04" cy="35.16" r="3.67"/><ellipse class="cls-5" cx="22.16" cy="22.49" rx="3.78" ry="2.26" transform="translate(-1.88 2.02) rotate(-5)"/><ellipse class="cls-5" cx="42.69" cy="22.49" rx="2.26" ry="3.78" transform="translate(16.56 63.06) rotate(-85)"/><path class="cls-8" d="M32,18a156.79,156.79,0,0,1-25.6-2,1.67,1.67,0,0,0-1.66,2.5C8.28,25,19.14,29.75,32,29.75S55.81,25,59.31,18.45a1.65,1.65,0,0,0-1.72-2.4A156.65,156.65,0,0,1,32,18Z"/></g></g></svg>