<svg xmlns="http://www.w3.org/2000/svg" viewBox="0 0 64 64"><defs><style>.cls-1,.cls-2{fill:#1a1a1a;}.cls-1{opacity:0;}.cls-3{fill:#fec92b;}.cls-4{fill:#fdaf18;}</style></defs><title>Disappointed face</title><g id="Layer_2" data-name="Layer 2"><g id="Rough"><rect class="cls-1" width="64" height="64"/><path class="cls-2" d="M49.05,2.6C44.11.75,38.89.5,34,.5H30.63C20.92.5,7.45,2,2.6,15c-2,5.42-2.14,10.94-2.09,17C.42,38.48.16,55.86,15,61.4c4.94,1.85,10.16,2.1,15.06,2.1h3.36c9.71,0,23.18-1.5,28-14.45,2-5.42,2.14-10.94,2.09-17C63.58,25.52,63.84,8.14,49.05,2.6Z"/><path class="cls-3" d="M59.49,32h0c.15-10.25-1.21-21.67-11.85-25.65C42.69,4.49,37.26,4.46,32,4.51h0C21.75,4.36,10.33,5.72,6.35,16.36,4.49,21.31,4.46,26.74,4.51,32h0C4.36,42.25,5.72,53.67,16.36,57.65c4.95,1.86,10.38,1.89,15.64,1.84h0c10.25.15,21.67-1.21,25.65-11.85C59.51,42.69,59.54,37.26,59.49,32Z"/><path class="cls-4" d="M32,54A46.35,46.35,0,0,1,6,45.79C7.48,51,10.52,55.47,16.36,57.65c4.95,1.86,10.38,1.89,15.64,1.84h0c10.25.15,21.67-1.21,25.65-11.85.25-.66.46-1.34.65-2A46.44,46.44,0,0,1,32,54Z"/><ellipse class="cls-4" cx="51" cy="42.49" rx="5.56" ry="3.55"/><ellipse class="cls-4" cx="13" cy="42.49" rx="5.56" ry="3.55"/><path class="cls-2" d="M40.29,50.7a29.63,29.63,0,0,0-4.15-1.25A20,20,0,0,0,32,49a21.38,21.38,0,0,0-4.13.44,34,34,0,0,0-4.16,1.22l0,0a1.16,1.16,0,0,1-1.47-.7,1.18,1.18,0,0,1,.25-1.17A11.8,11.8,0,0,1,26.8,46a14.43,14.43,0,0,1,5.2-1,13.59,13.59,0,0,1,9.54,3.8,1.14,1.14,0,0,1-1.21,1.87Z"/><path class="cls-2" d="M14.67,34.74a19.25,19.25,0,0,0,3,.57,9.68,9.68,0,0,0,2.7-.1A10.76,10.76,0,0,0,23,34.36a23,23,0,0,0,2.64-1.55l.05,0a1.16,1.16,0,0,1,1.61.34,1.14,1.14,0,0,1,.11,1A7.54,7.54,0,0,1,25,37.4a8.38,8.38,0,0,1-3.87,1.74,8.68,8.68,0,0,1-4.24-.33,8,8,0,0,1-3.38-2.2,1.16,1.16,0,0,1,1.14-1.89Z"/><path class="cls-2" d="M38.41,32.81A18.76,18.76,0,0,0,41,34.38a9.58,9.58,0,0,0,2.58.83,11,11,0,0,0,2.7.08,23.91,23.91,0,0,0,3-.55l.06,0a1.17,1.17,0,0,1,1.4.88,1.2,1.2,0,0,1-.25,1,7.8,7.8,0,0,1-3.38,2.23,8.44,8.44,0,0,1-4.24.3,8.58,8.58,0,0,1-3.86-1.76,8,8,0,0,1-2.42-3.22,1.15,1.15,0,0,1,.65-1.5,1.16,1.16,0,0,1,1.06.11Z"/><ellipse class="cls-4" cx="19.34" cy="18.76" rx="4.66" ry="2.79" transform="translate(-1.56 1.76) rotate(-5)"/><ellipse class="cls-4" cx="44.66" cy="18.76" rx="2.79" ry="4.66" transform="translate(22.08 61.61) rotate(-85)"/></g></g></svg>