<svg xmlns="http://www.w3.org/2000/svg" viewBox="0 0 64 64"><defs><style>.cls-1,.cls-6{fill:#1a1a1a;}.cls-1{opacity:0;}.cls-2{opacity:0.5;}.cls-3{fill:#fec92b;}.cls-4{fill:#fdaf18;}.cls-5{fill:#fff;}</style></defs><title>Dotted line face</title><g id="Layer_2" data-name="Layer 2"><g id="Rough"><rect class="cls-1" width="64" height="64"/><g class="cls-2"><path class="cls-3" d="M32,55.3a49.28,49.28,0,0,0,27.9-8.85c1.28-4.66,1.3-9.62,1.26-14.45h0c.16-10.87-1.28-23-12.57-27.21-5.25-2-11-2-16.59-1.95h0C21.13,2.68,9,4.12,4.79,15.41c-2,5.25-2,11-1.95,16.59h0A50.43,50.43,0,0,0,4.37,46.63h0A49.21,49.21,0,0,0,32,55.3Z"/><path class="cls-4" d="M15.41,59.21c5.25,2,11,2,16.59,1.95h0c10.87.16,23-1.28,27.21-12.57.26-.7.49-1.42.69-2.14A49.28,49.28,0,0,1,32,55.3,49.21,49.21,0,0,1,4.37,46.63h0C6,52.19,9.21,56.89,15.41,59.21Z"/></g><circle class="cls-5" cx="44.5" cy="31.37" r="7.78"/><circle class="cls-5" cx="19.5" cy="31.37" r="7.78"/><circle class="cls-6" cx="42.34" cy="31.37" r="4.52"/><circle class="cls-6" cx="21.66" cy="31.37" r="4.52"/><path class="cls-6" d="M43.54,45.75c-3.87.16-7.7.16-11.54.18-1.92,0-3.84,0-5.76,0s-3.84,0-5.78-.16a.85.85,0,0,1-.15-1.67,39.73,39.73,0,0,1,5.82-.89c2-.18,3.91-.25,5.87-.25s3.91.09,5.87.27a42.57,42.57,0,0,1,5.82.87.85.85,0,0,1,.64,1A.86.86,0,0,1,43.54,45.75Z"/><path class="cls-6" d="M26.53.61a46.89,46.89,0,0,0-4.78.48A2,2,0,0,0,20.38,4l.05.09a2,2,0,0,0,2,1c1.42-.21,2.86-.35,4.31-.43a2,2,0,0,0,1.84-2V2.57A2,2,0,0,0,26.53.61Z"/><path class="cls-6" d="M5,41.16c-.22-1.63-.36-3.29-.42-5a2,2,0,0,0-2-1.86H2.49a2,2,0,0,0-2,2A50.72,50.72,0,0,0,1,41.8a2,2,0,0,0,2.93,1.41l.1-.06A2,2,0,0,0,5,41.16Z"/><path class="cls-6" d="M37.27,4.56c1.47.06,2.94.17,4.38.36a2,2,0,0,0,2-.95l0-.09A2,2,0,0,0,42.23,1C40.62.74,39,.62,37.44.56a2,2,0,0,0-2,2V2.6A2,2,0,0,0,37.27,4.56Z"/><path class="cls-6" d="M26.72,59.44a42.8,42.8,0,0,1-5.44-.51,2,2,0,0,0-2.06.94l0,.07a2,2,0,0,0,1.34,2.91,47.67,47.67,0,0,0,6,.59,2,2,0,0,0,2-2V61.4A2,2,0,0,0,26.72,59.44Z"/><path class="cls-6" d="M2.57,27.53h.09a2,2,0,0,0,2-1.84,39.49,39.49,0,0,1,.55-4.86,2,2,0,0,0-1-2l-.07,0a2,2,0,0,0-2.9,1.31,43.4,43.4,0,0,0-.61,5.38A2,2,0,0,0,2.57,27.53Z"/><path class="cls-6" d="M61.51,34.34h-.08a2,2,0,0,0-2,1.9,49.39,49.39,0,0,1-.34,5,2,2,0,0,0,1,2l.09.06a2,2,0,0,0,2.92-1.43,54.59,54.59,0,0,0,.37-5.5A2,2,0,0,0,61.51,34.34Z"/><path class="cls-6" d="M44.69,59.73a2,2,0,0,0-2.08-.94,45,45,0,0,1-5.37.6,2,2,0,0,0-1.84,2v.08a2,2,0,0,0,2.07,2,46.12,46.12,0,0,0,6-.68,2,2,0,0,0,1.31-2.9Z"/><path class="cls-6" d="M13.44,5.59a1.94,1.94,0,0,0-2.71-.7,19.42,19.42,0,0,0-5,4.42,2,2,0,0,0,.59,2.88l.1.06A2,2,0,0,0,9,11.76,15.76,15.76,0,0,1,12.8,8.34a2,2,0,0,0,.69-2.65Z"/><path class="cls-6" d="M58.74,50.3l-.09,0a2,2,0,0,0-2.65.68,15.64,15.64,0,0,1-4,4.21,2,2,0,0,0-.6,2.6l.05.08a2,2,0,0,0,2.8.65A19.49,19.49,0,0,0,59.44,53,2,2,0,0,0,58.74,50.3Z"/><path class="cls-6" d="M12,55.25a16,16,0,0,1-3.92-4.42,2,2,0,0,0-2.65-.64l0,0a2,2,0,0,0-.71,2.69,19.75,19.75,0,0,0,4.88,5.53,2,2,0,0,0,2.92-.55l.05-.08A2,2,0,0,0,12,55.25Z"/><path class="cls-6" d="M59.33,25.73a1.94,1.94,0,0,0,2,1.8h.11a2,2,0,0,0,2-2.12,44.9,44.9,0,0,0-.7-5.23,2,2,0,0,0-2.91-1.33l-.09,0a1.94,1.94,0,0,0-.95,2A44.14,44.14,0,0,1,59.33,25.73Z"/><path class="cls-6" d="M54.92,11.73a2,2,0,0,0,2.57.56l.06,0a2,2,0,0,0,.57-2.89,19.35,19.35,0,0,0-4.73-4.54,2,2,0,0,0-2.77.67l0,.07a2,2,0,0,0,.63,2.62A15.32,15.32,0,0,1,54.92,11.73Z"/></g></g></svg>