<svg xmlns="http://www.w3.org/2000/svg" viewBox="0 0 64 64"><defs><style>.cls-1,.cls-2{fill:#1a1a1a;}.cls-1{opacity:0;}.cls-3{fill:#fec92b;}.cls-4{fill:#fdaf18;}.cls-5{fill:#fff;}.cls-6{fill:#c62d43;}.cls-7{fill:#1778ff;}.cls-8{fill:#37b9ff;}</style></defs><title>Grinning face with sweat</title><g id="Layer_2" data-name="Layer 2"><g id="Rough"><rect class="cls-1" width="64" height="64"/><path class="cls-2" d="M63.11,23.28a10,10,0,0,0,.39-2.78c0-3.95-2.8-14-9.09-14.94a20.84,20.84,0,0,0-5.36-3C44.11.75,38.89.5,34,.5H30.63C20.92.5,7.45,2,2.61,15c-2,5.42-2.15,11-2.09,17C.42,38.48.17,55.86,15,61.4,19.9,63.25,25.11,63.5,30,63.5h3.36c9.71,0,23.17-1.5,28-14.45,2-5.42,2.15-10.94,2.09-17A65.79,65.79,0,0,0,63.11,23.28Z"/><path class="cls-3" d="M59.49,32h0c.15-10.25-1.2-21.67-11.84-25.65C42.69,4.49,37.27,4.46,32,4.51h0C21.75,4.36,10.33,5.72,6.35,16.36,4.5,21.31,4.47,26.74,4.51,32h0C4.37,42.25,5.72,53.67,16.36,57.65c5,1.86,10.38,1.89,15.64,1.84h0c10.26.15,21.67-1.21,25.66-11.85C59.51,42.69,59.54,37.26,59.49,32Z"/><path class="cls-4" d="M32,54A46.31,46.31,0,0,1,6,45.79c1.53,5.25,4.56,9.68,10.4,11.86,5,1.86,10.38,1.89,15.64,1.84h0c10.26.15,21.67-1.21,25.66-11.85.24-.66.46-1.34.64-2A46.39,46.39,0,0,1,32,54Z"/><ellipse class="cls-4" cx="51" cy="39.49" rx="5.56" ry="3.55"/><ellipse class="cls-4" cx="13" cy="39.49" rx="5.56" ry="3.55"/><path class="cls-2" d="M26,36.11a6.49,6.49,0,0,0-5.5-3.3A6.48,6.48,0,0,0,15,36.11l0,0a.86.86,0,0,1-1.58-.39,6.22,6.22,0,0,1,1.94-4.86,7.4,7.4,0,0,1,10.33,0,6.22,6.22,0,0,1,1.94,4.86.86.86,0,0,1-.93.78.85.85,0,0,1-.65-.39Z"/><path class="cls-2" d="M49,36.11a6.23,6.23,0,0,0-11,0l0,0a.86.86,0,0,1-1.58-.39,6.19,6.19,0,0,1,1.94-4.86,7.39,7.39,0,0,1,10.32,0,6.2,6.2,0,0,1,2,4.86.86.86,0,0,1-.93.78.83.83,0,0,1-.65-.39Z"/><path class="cls-5" d="M19.4,42.51c2.74,2.19,7.36,3.63,12.6,3.63s9.87-1.44,12.61-3.63c-4-.36-8.19-.56-12.61-.56S23.35,42.15,19.4,42.51Z"/><path class="cls-6" d="M32.13,50.82A19,19,0,0,0,23,53a14.87,14.87,0,0,0,18.07-.08A19,19,0,0,0,32.13,50.82Z"/><path class="cls-2" d="M44.62,42.51h0C41.87,44.7,37.25,46.14,32,46.14s-9.86-1.44-12.6-3.63h0A2,2,0,0,0,17.63,45,14.93,14.93,0,0,0,23,53h0a19,19,0,0,1,9.11-2.19,19,19,0,0,1,9,2.11A14.9,14.9,0,0,0,46.38,45,2,2,0,0,0,44.62,42.51Z"/><ellipse class="cls-4" cx="19.35" cy="20.76" rx="4.66" ry="2.79" transform="translate(-1.74 1.77) rotate(-5)"/><ellipse class="cls-4" cx="44.66" cy="20.76" rx="2.79" ry="4.66" transform="translate(20.09 63.44) rotate(-85)"/><path class="cls-7" d="M59.5,20.5a6,6,0,0,1-12,0c0-3.31,2.69-11,6-11S59.5,17.19,59.5,20.5Z"/><path class="cls-8" d="M58.2,14.82C57.1,12,55.41,9.5,53.5,9.5S49.91,12,48.81,14.82a8.68,8.68,0,0,0-.18,1.62,4.88,4.88,0,1,0,9.75,0A8.68,8.68,0,0,0,58.2,14.82Z"/></g></g></svg>