<svg xmlns="http://www.w3.org/2000/svg" xmlns:xlink="http://www.w3.org/1999/xlink" viewBox="0 0 64 64"><defs><style>.cls-1,.cls-2{fill:#1a1a1a;}.cls-1{opacity:0;}.cls-3{fill:url(#linear-gradient);}.cls-4{fill:#fdaf18;}.cls-5{fill:#fff;}.cls-6{fill:#37b9ff;}.cls-7{fill:#1778ff;}</style><linearGradient id="linear-gradient" x1="32" y1="59.5" x2="32" y2="4.5" gradientUnits="userSpaceOnUse"><stop offset="0" stop-color="#fec92b"/><stop offset="0.1" stop-color="#fec92b"/><stop offset="0.65" stop-color="#cef"/><stop offset="0.69" stop-color="#c3ebff"/><stop offset="0.77" stop-color="#abe2ff"/><stop offset="0.86" stop-color="#83d4ff"/><stop offset="0.96" stop-color="#4cc1ff"/><stop offset="1" stop-color="#37b9ff"/></linearGradient></defs><title>Anxious face with sweat</title><g id="Layer_2" data-name="Layer 2"><g id="Rough"><rect class="cls-1" width="64" height="64"/><path class="cls-2" d="M63.11,23.28a10,10,0,0,0,.39-2.78c0-3.95-2.8-14-9.09-14.94a20.84,20.84,0,0,0-5.36-3C44.11.75,38.89.5,34,.5H30.63C20.92.5,7.45,2,2.61,15c-2,5.42-2.15,11-2.1,17C.42,38.48.17,55.86,15,61.4,19.9,63.25,25.11,63.5,30,63.5h3.36c9.7,0,23.17-1.5,28-14.45,2-5.42,2.15-10.94,2.09-17A65.79,65.79,0,0,0,63.11,23.28Z"/><path class="cls-3" d="M59.49,32h0c.15-10.25-1.21-21.67-11.85-25.65C42.69,4.49,37.26,4.46,32,4.51h0C21.75,4.36,10.33,5.72,6.35,16.36,4.49,21.31,4.46,26.74,4.51,32h0C4.36,42.25,5.72,53.67,16.36,57.65c4.95,1.86,10.38,1.89,15.64,1.84h0c10.25.15,21.67-1.21,25.65-11.85C59.51,42.69,59.54,37.26,59.49,32Z"/><path class="cls-4" d="M32,54A46.35,46.35,0,0,1,6,45.79C7.48,51,10.52,55.47,16.36,57.65c4.95,1.86,10.38,1.89,15.64,1.84h0c10.25.15,21.67-1.21,25.65-11.85.25-.66.46-1.34.65-2A46.44,46.44,0,0,1,32,54Z"/><ellipse class="cls-4" cx="51" cy="39.49" rx="5.56" ry="3.55"/><ellipse class="cls-4" cx="13" cy="39.49" rx="5.56" ry="3.55"/><circle class="cls-5" cx="44.5" cy="31.37" r="7.78"/><circle class="cls-5" cx="19.5" cy="31.37" r="7.78"/><circle class="cls-2" cx="42.34" cy="31.37" r="4.52"/><circle class="cls-2" cx="21.66" cy="31.37" r="4.52"/><path class="cls-6" d="M13.62,17a20.38,20.38,0,0,0,5.63-1.13,21.07,21.07,0,0,0,2.51-1.17c.83-.46,1.63-1,2.52-1.58l.07,0a1.16,1.16,0,0,1,1.62.33,1.19,1.19,0,0,1,.12,1,8.87,8.87,0,0,1-5.48,5.19,9.19,9.19,0,0,1-7.53-.45A1.16,1.16,0,0,1,13.55,17Z"/><path class="cls-6" d="M39.72,13.15a20.51,20.51,0,0,0,5,2.75,19.94,19.94,0,0,0,2.68.72c.93.18,1.88.29,3,.41h.08a1.17,1.17,0,0,1,1,1.3,1.15,1.15,0,0,1-.56.86,8.89,8.89,0,0,1-7.53.45,9.16,9.16,0,0,1-5.48-5.19,1.16,1.16,0,0,1,1.75-1.35Z"/><path class="cls-7" d="M59.5,20.5a6,6,0,0,1-12,0c0-3.31,2.69-11,6-11S59.5,17.19,59.5,20.5Z"/><path class="cls-6" d="M58.2,14.82C57.1,12,55.41,9.5,53.5,9.5S49.91,12,48.81,14.82a8.68,8.68,0,0,0-.18,1.62,4.88,4.88,0,1,0,9.75,0A9.62,9.62,0,0,0,58.2,14.82Z"/><path class="cls-2" d="M38.46,48.92A27.94,27.94,0,0,0,35,47.79a11.86,11.86,0,0,0-3-.36,14,14,0,0,0-3,.4,34.82,34.82,0,0,0-3.45,1.09l-.15,0a1.77,1.77,0,0,1-2.25-1.11,1.8,1.8,0,0,1,.09-1.37,9,9,0,0,1,3.54-3.66A10.13,10.13,0,0,1,32,41.44a10.42,10.42,0,0,1,5.22,1.42,9.5,9.5,0,0,1,3.55,3.63A1.76,1.76,0,0,1,38.61,49Z"/></g></g></svg>