<svg xmlns="http://www.w3.org/2000/svg" viewBox="0 0 64 64"><defs><style>.cls-1,.cls-2{fill:#1a1a1a;}.cls-1{opacity:0;}.cls-3{fill:#96dbff;}.cls-4{fill:#37b9ff;}.cls-5{fill:#fff;}.cls-6{fill:#cef;}</style></defs><title>Cold face</title><g id="Layer_2" data-name="Layer 2"><g id="Rough"><rect class="cls-1" width="64" height="64"/><path class="cls-2" d="M49.05,2.6C44.11.75,38.89.5,34,.5H30.63C20.92.5,7.45,2,2.6,15c-2,5.42-2.14,10.94-2.09,17C.42,38.48.16,55.86,15,61.4c4.94,1.85,10.17,2.1,15.07,2.1h3.35c4.84,0,11.24-.36,16.86-2.81A5.39,5.39,0,0,0,60.28,59L62.6,44.85c.2-1,.36-2,.5-3.07,0,0,0-.05,0-.07a74.43,74.43,0,0,0,.38-9.65C63.58,25.52,63.84,8.14,49.05,2.6Z"/><path class="cls-3" d="M59.49,32h0c.15-10.25-1.21-21.67-11.85-25.65C42.69,4.49,37.26,4.46,32,4.51h0C21.75,4.36,10.33,5.72,6.35,16.36,4.49,21.31,4.46,26.74,4.51,32h0C4.36,42.25,5.72,53.67,16.36,57.65c4.95,1.86,10.38,1.89,15.64,1.84h0c10.25.15,21.67-1.21,25.65-11.85C59.51,42.69,59.54,37.26,59.49,32Z"/><path class="cls-4" d="M32,54A46.35,46.35,0,0,1,6,45.79C7.48,51,10.52,55.47,16.36,57.65c4.95,1.86,10.38,1.89,15.64,1.84h0c10.25.15,21.67-1.21,25.65-11.85.25-.66.46-1.34.65-2A46.44,46.44,0,0,1,32,54Z"/><ellipse class="cls-4" cx="51" cy="39.49" rx="5.56" ry="3.55"/><ellipse class="cls-4" cx="13" cy="39.49" rx="5.56" ry="3.55"/><circle class="cls-5" cx="44.5" cy="31.37" r="7.78"/><circle class="cls-5" cx="19.5" cy="31.37" r="7.78"/><circle class="cls-2" cx="42.34" cy="31.37" r="4.52"/><circle class="cls-2" cx="21.66" cy="31.37" r="4.52"/><path class="cls-5" d="M41.13,53.45a103.11,103.11,0,0,0-18.26,0,5.6,5.6,0,0,1-6-4.54h0a5.55,5.55,0,0,1,5.07-6.39,111.72,111.72,0,0,1,20.2,0,5.55,5.55,0,0,1,5.07,6.39h0A5.6,5.6,0,0,1,41.13,53.45Z"/><ellipse class="cls-4" cx="19.34" cy="15.76" rx="4.66" ry="2.79" transform="translate(-1.3 1.75) rotate(-5)"/><ellipse class="cls-4" cx="44.66" cy="15.76" rx="2.79" ry="4.66" transform="translate(25.07 58.87) rotate(-85)"/><path class="cls-3" d="M25.55,47.06C23,47,19.84,46.89,16.86,47a5,5,0,0,0,.2,2.79,65.4,65.4,0,0,1,8.52-1.89A.4.4,0,0,0,25.55,47.06Z"/><path class="cls-3" d="M47.14,47c-3-.08-6.32,0-8.94.1a.4.4,0,0,0,0,.79,68.56,68.56,0,0,1,8.76,1.95,6.12,6.12,0,0,0,.25-.89A5.54,5.54,0,0,0,47.14,47Z"/><path class="cls-6" d="M57.2,39a4.33,4.33,0,0,0-4.32,4.53l.72,14.71a1.38,1.38,0,0,0,2.73.16l2.81-17.12A2,2,0,0,0,57.2,39Z"/><path class="cls-5" d="M56.84,40.64a1.92,1.92,0,0,0-1.92,2l.32,6.57a.61.61,0,0,0,1.21.07l1.26-7.64A.89.89,0,0,0,56.84,40.64Z"/><path class="cls-6" d="M8.64,34.45a2.3,2.3,0,0,1,2.46,2.12c-.06,7.88-.48,14-1.54,14S7.1,44.11,7,35.91a1.58,1.58,0,0,1,1.69-1.46Z"/><path class="cls-6" d="M40.62,8.9c-1.55,0-2.81.81-2.8,1.8.07,6.73.55,11.92,1.75,11.92s2.79-5.48,3-12.48c0-.68-.84-1.24-1.91-1.24Z"/></g></g></svg>