<svg xmlns="http://www.w3.org/2000/svg" viewBox="0 0 64 64"><defs><style>.cls-1,.cls-2{fill:#1a1a1a;}.cls-1{opacity:0;}.cls-3{fill:#fec92b;}.cls-4{fill:#fdaf18;}.cls-5{fill:#fff;}.cls-6{fill:#fc9504;}.cls-7{fill:#1778ff;}.cls-8{fill:#37b9ff;}</style></defs><title>Crying face</title><g id="Layer_2" data-name="Layer 2"><g id="Rough"><rect class="cls-1" width="64" height="64"/><path class="cls-2" d="M49.05,2.6C44.11.75,38.89.5,34,.5H30.63C20.92.5,7.45,2,2.6,15c-2,5.42-2.14,10.94-2.09,17C.42,38.48.16,55.86,15,61.4c4.94,1.85,10.16,2.1,15.06,2.1h3.36c9.71,0,23.18-1.5,28-14.45,2-5.42,2.14-10.94,2.09-17C63.58,25.52,63.84,8.14,49.05,2.6Z"/><path class="cls-3" d="M59.49,32h0c.15-10.25-1.21-21.67-11.85-25.65C42.69,4.49,37.26,4.46,32,4.51h0C21.75,4.36,10.33,5.72,6.35,16.36,4.49,21.31,4.46,26.74,4.51,32h0C4.36,42.25,5.72,53.67,16.36,57.65c4.95,1.86,10.38,1.89,15.64,1.84h0c10.25.15,21.67-1.21,25.65-11.85C59.51,42.69,59.54,37.26,59.49,32Z"/><path class="cls-4" d="M32,54A46.35,46.35,0,0,1,6,45.79C7.48,51,10.52,55.47,16.36,57.65c4.95,1.86,10.38,1.89,15.64,1.84h0c10.25.15,21.67-1.21,25.65-11.85.25-.66.46-1.34.65-2A46.44,46.44,0,0,1,32,54Z"/><ellipse class="cls-4" cx="51" cy="39.49" rx="5.56" ry="3.55"/><ellipse class="cls-4" cx="13" cy="39.49" rx="5.56" ry="3.55"/><circle class="cls-5" cx="44.5" cy="31.37" r="7.78"/><circle class="cls-5" cx="19.5" cy="31.37" r="7.78"/><circle class="cls-2" cx="42.34" cy="31.37" r="4.52"/><circle class="cls-2" cx="21.66" cy="31.37" r="4.52"/><path class="cls-6" d="M23.58,16.7A20.59,20.59,0,0,0,18,17.84,17.8,17.8,0,0,0,15.44,19c-.83.45-1.63,1-2.53,1.57l-.07.05a1.17,1.17,0,0,1-1.61-.33,1.2,1.2,0,0,1-.13-1,8.9,8.9,0,0,1,5.49-5.2,9.15,9.15,0,0,1,7.53.46,1.15,1.15,0,0,1,.43,1.58,1.19,1.19,0,0,1-.9.58Z"/><path class="cls-6" d="M51.09,20.58a20.52,20.52,0,0,0-5-2.74,18.22,18.22,0,0,0-2.68-.72c-.92-.19-1.88-.29-2.95-.42h-.08a1.16,1.16,0,0,1-.46-2.15,8.89,8.89,0,0,1,7.53-.46,9.22,9.22,0,0,1,5.49,5.2,1.16,1.16,0,0,1-1.75,1.35Z"/><path class="cls-2" d="M40.29,47.7a29.63,29.63,0,0,0-4.15-1.25A20,20,0,0,0,32,46a21.38,21.38,0,0,0-4.13.44,34,34,0,0,0-4.16,1.22l0,0a1.16,1.16,0,0,1-1.47-.7,1.18,1.18,0,0,1,.25-1.17A11.8,11.8,0,0,1,26.8,43a14.43,14.43,0,0,1,5.2-1,13.59,13.59,0,0,1,9.54,3.8,1.14,1.14,0,0,1-1.21,1.87Z"/><path class="cls-7" d="M13.26,47.31a5.24,5.24,0,1,0,10.48,0c0-2.89-2.34-9.61-5.24-9.61S13.26,44.42,13.26,47.31Z"/><path class="cls-8" d="M14.4,42.35c1-2.43,2.44-4.65,4.1-4.65s3.14,2.22,4.1,4.65a8,8,0,0,1,.16,1.42,4.26,4.26,0,0,1-8.52,0A8,8,0,0,1,14.4,42.35Z"/></g></g></svg>