<svg xmlns="http://www.w3.org/2000/svg" viewBox="0 0 64 64"><defs><style>.cls-1,.cls-2{fill:#1a1a1a;}.cls-1{opacity:0;}.cls-3{fill:#fec92b;}.cls-4{fill:#fdaf18;}.cls-5{fill:#9c3d29;}.cls-6{fill:#bb5938;}.cls-10,.cls-7{fill:none;stroke:#476475;stroke-miterlimit:10;stroke-width:4px;}.cls-7{stroke-linecap:round;}.cls-8{fill:#fff;}.cls-9{fill:#476475;}.cls-11{fill:#fc9504;}</style></defs><title>Disguised face</title><g id="Layer_2" data-name="Layer 2"><g id="Rough"><rect class="cls-1" width="64" height="64"/><path class="cls-2" d="M49.05,2.6C44.11.75,38.89.5,34,.5H30.63C20.92.5,7.45,2,2.6,15c-2,5.42-2.14,10.94-2.09,17C.42,38.48.16,55.86,15,61.4c4.94,1.85,10.16,2.1,15.06,2.1h3.36c9.71,0,23.18-1.5,28-14.45,2-5.42,2.14-10.94,2.09-17C63.58,25.52,63.84,8.14,49.05,2.6Z"/><path class="cls-3" d="M59.49,32h0c.15-10.25-1.21-21.67-11.85-25.65C42.69,4.49,37.26,4.46,32,4.51h0C21.75,4.36,10.33,5.72,6.35,16.36,4.49,21.31,4.46,26.74,4.51,32h0C4.36,42.25,5.72,53.67,16.36,57.65c4.95,1.86,10.38,1.89,15.64,1.84h0c10.25.15,21.67-1.21,25.65-11.85C59.51,42.69,59.54,37.26,59.49,32Z"/><path class="cls-4" d="M32,54A46.35,46.35,0,0,1,6,45.79C7.48,51,10.52,55.47,16.36,57.65c4.95,1.86,10.38,1.89,15.64,1.84h0c10.25.15,21.67-1.21,25.65-11.85.25-.66.46-1.34.65-2A46.44,46.44,0,0,1,32,54Z"/><path class="cls-5" d="M19.82,44.8a11.13,11.13,0,0,0-1.53,3A2.39,2.39,0,0,0,20.6,50.9H43.4a2.39,2.39,0,0,0,2.31-3.06,11.13,11.13,0,0,0-1.53-3A24,24,0,0,1,32,47.9,24,24,0,0,1,19.82,44.8Z"/><path class="cls-6" d="M32,39A14.85,14.85,0,0,0,19.82,44.8,24,24,0,0,0,32,47.9a24,24,0,0,0,12.18-3.1A14.85,14.85,0,0,0,32,39Z"/><ellipse class="cls-4" cx="51" cy="39.49" rx="5.56" ry="3.55"/><ellipse class="cls-4" cx="13" cy="39.49" rx="5.56" ry="3.55"/><line class="cls-7" x1="59.5" y1="31.37" x2="44.5" y2="31.37"/><line class="cls-7" x1="19.5" y1="31.37" x2="4.5" y2="31.37"/><path class="cls-6" d="M37.52,23.28A26,26,0,0,1,35.44,15a1.53,1.53,0,0,1,1.14-1.54c4.3-1.11,12.76-2.64,18.81,3.75a1.54,1.54,0,0,1,.11,2l-3.41,4.45Z"/><path class="cls-6" d="M26.73,23.28A25.71,25.71,0,0,0,28.81,15a1.52,1.52,0,0,0-1.14-1.54c-4.3-1.11-12.76-2.64-18.81,3.75a1.54,1.54,0,0,0-.11,2l3.41,4.45Z"/><circle class="cls-8" cx="44.5" cy="31.37" r="10.42"/><path class="cls-9" d="M44.5,22.45a8.93,8.93,0,1,1-8.92,8.92,8.92,8.92,0,0,1,8.92-8.92m0-3A11.93,11.93,0,1,0,56.42,31.37,11.93,11.93,0,0,0,44.5,19.45Z"/><circle class="cls-8" cx="19.5" cy="31.37" r="10.42"/><path class="cls-9" d="M19.5,22.45a8.93,8.93,0,1,1-8.92,8.92,8.92,8.92,0,0,1,8.92-8.92m0-3A11.93,11.93,0,1,0,31.42,31.37,11.94,11.94,0,0,0,19.5,19.45Z"/><circle class="cls-2" cx="42.34" cy="31.37" r="4.52"/><circle class="cls-2" cx="21.66" cy="31.37" r="4.52"/><line class="cls-10" x1="34.5" y1="30.37" x2="29.5" y2="30.37"/><path class="cls-11" d="M32.13,32.21c-2.94,0-5.65,8.67-4,11.07,1.14,1.61,6.76,1.61,7.89,0C37.77,40.88,35.06,32.21,32.13,32.21Z"/></g></g></svg>