<svg xmlns="http://www.w3.org/2000/svg" viewBox="0 0 64 64"><defs><style>.cls-1,.cls-2{fill:#1a1a1a;}.cls-1{opacity:0;}.cls-3{fill:#fec92b;}.cls-4{fill:#fdaf18;}.cls-5{fill:#a72d3e;}.cls-6{fill:#c62d43;}</style></defs><title>Dizzy face</title><g id="Layer_2" data-name="Layer 2"><g id="Rough"><rect class="cls-1" width="64" height="64"/><path class="cls-2" d="M49.05,2.6C44.11.75,38.89.5,34,.5H30.63C20.92.5,7.45,2,2.6,15c-2,5.42-2.14,10.94-2.09,17C.42,38.48.16,55.86,15,61.4c4.94,1.85,10.16,2.1,15.06,2.1h3.36c9.71,0,23.18-1.5,28-14.45,2-5.42,2.14-10.94,2.09-17C63.58,25.52,63.84,8.14,49.05,2.6Z"/><path class="cls-3" d="M59.49,32h0c.15-10.25-1.21-21.67-11.85-25.65C42.69,4.49,37.26,4.46,32,4.51h0C21.75,4.36,10.33,5.72,6.35,16.36,4.49,21.31,4.46,26.74,4.51,32h0C4.36,42.25,5.72,53.67,16.36,57.65c4.95,1.86,10.38,1.89,15.64,1.84h0c10.25.15,21.67-1.21,25.65-11.85C59.51,42.69,59.54,37.26,59.49,32Z"/><path class="cls-4" d="M32,54A46.35,46.35,0,0,1,6,45.79C7.48,51,10.52,55.47,16.36,57.65c4.95,1.86,10.38,1.89,15.64,1.84h0c10.25.15,21.67-1.21,25.65-11.85.25-.66.46-1.34.65-2A46.44,46.44,0,0,1,32,54Z"/><ellipse class="cls-4" cx="51" cy="39.49" rx="5.56" ry="3.55"/><ellipse class="cls-4" cx="13" cy="39.49" rx="5.56" ry="3.55"/><ellipse class="cls-4" cx="19.34" cy="13.76" rx="4.66" ry="2.79" transform="translate(-1.13 1.74) rotate(-5)"/><ellipse class="cls-4" cx="44.66" cy="13.76" rx="2.79" ry="4.66" transform="translate(27.06 57.04) rotate(-85)"/><path class="cls-5" d="M39.75,23.41c1,.88,1.84,1.82,2.72,2.77S44.2,28.1,45,29.09s1.65,2,2.42,3,1.55,2.07,2.26,3.16a1.62,1.62,0,0,1-2.46,2.06c-1-.88-1.84-1.82-2.72-2.77S42.81,32.64,42,31.66s-1.65-2-2.42-3S38,26.56,37.29,25.47a1.62,1.62,0,0,1,2.46-2.06Z"/><path class="cls-5" d="M36.53,34.13c.88-1,1.83-1.85,2.77-2.73s1.93-1.72,2.91-2.56,2-1.64,3-2.42,2.07-1.55,3.16-2.26a1.63,1.63,0,0,1,2.24.49,1.61,1.61,0,0,1-.17,2c-.89,1-1.83,1.85-2.78,2.72s-1.92,1.73-2.91,2.57-2,1.64-3,2.42-2.07,1.55-3.17,2.25a1.61,1.61,0,0,1-2.06-2.45Z"/><path class="cls-5" d="M15.6,24.16c1.09.71,2.13,1.48,3.16,2.26s2,1.6,3,2.42,2,1.68,2.9,2.56,1.89,1.77,2.78,2.73a1.61,1.61,0,0,1-2.06,2.45c-1.1-.7-2.14-1.47-3.17-2.26s-2-1.59-3-2.41-2-1.68-2.92-2.56-1.88-1.77-2.77-2.73a1.61,1.61,0,0,1,.1-2.28A1.63,1.63,0,0,1,15.6,24.16Z"/><path class="cls-5" d="M14.29,35.28c.7-1.1,1.48-2.13,2.26-3.17s1.59-2,2.42-3,1.68-2,2.56-2.91,1.77-1.89,2.72-2.77a1.62,1.62,0,0,1,2.46,2.06c-.71,1.09-1.48,2.13-2.26,3.16s-1.6,2-2.42,3-1.67,2-2.56,2.91-1.76,1.89-2.72,2.77a1.62,1.62,0,0,1-2.46-2.06Z"/><path class="cls-2" d="M39.49,49.8a6.28,6.28,0,0,0,.23-1.69c0-4.26-3.46-8.25-7.72-8.25s-7.72,4-7.72,8.25A6.26,6.26,0,0,0,24.59,50a15.22,15.22,0,0,1,14.9-.22Z"/><path class="cls-6" d="M32,54c3.64,0,6.67-1.18,7.49-4.17a15.22,15.22,0,0,0-14.9.22C25.5,52.84,28.45,54,32,54Z"/></g></g></svg>