<svg xmlns="http://www.w3.org/2000/svg" viewBox="0 0 64 64"><defs><style>.cls-1,.cls-2{fill:#1a1a1a;}.cls-1{opacity:0;}.cls-3{fill:#fec92b;}.cls-4{fill:#fdaf18;}</style></defs><title>Expressionless face</title><g id="Layer_2" data-name="Layer 2"><g id="Rough"><rect class="cls-1" width="64" height="64"/><path class="cls-2" d="M49.05,2.6C44.11.75,38.89.5,34,.5H30.63C20.92.5,7.45,2,2.6,15c-2,5.42-2.14,10.94-2.09,17C.42,38.48.16,55.86,15,61.4c4.94,1.85,10.16,2.1,15.06,2.1h3.36c9.71,0,23.18-1.5,28-14.45,2-5.42,2.14-10.94,2.09-17C63.58,25.52,63.84,8.14,49.05,2.6Z"/><path class="cls-3" d="M59.49,32h0c.15-10.25-1.21-21.67-11.85-25.65C42.69,4.49,37.26,4.46,32,4.51h0C21.75,4.36,10.33,5.72,6.35,16.36,4.49,21.31,4.46,26.74,4.51,32h0C4.36,42.25,5.72,53.67,16.36,57.65c4.95,1.86,10.38,1.89,15.64,1.84h0c10.25.15,21.67-1.21,25.65-11.85C59.51,42.69,59.54,37.26,59.49,32Z"/><path class="cls-4" d="M32,54A46.35,46.35,0,0,1,6,45.79C7.48,51,10.52,55.47,16.36,57.65c4.95,1.86,10.38,1.89,15.64,1.84h0c10.25.15,21.67-1.21,25.65-11.85.25-.66.46-1.34.65-2A46.44,46.44,0,0,1,32,54Z"/><ellipse class="cls-4" cx="51" cy="39.49" rx="5.56" ry="3.55"/><ellipse class="cls-4" cx="13" cy="39.49" rx="5.56" ry="3.55"/><path class="cls-2" d="M41.54,45.75c-1.62.12-3.22.11-4.79.14l-4.75,0c-1.59,0-3.17,0-4.75,0s-3.17,0-4.79-.16a.85.85,0,0,1-.15-1.67,30.91,30.91,0,0,1,4.81-.9A44.42,44.42,0,0,1,32,42.94a39,39,0,0,1,9.69,1.14.84.84,0,0,1,.61,1A.86.86,0,0,1,41.54,45.75Z"/><path class="cls-2" d="M26.61,32.38c-2.09.22-4,.24-6,.33l-2.94.1c-1,0-2,0-3,0H14.6A1.18,1.18,0,0,1,14,30.69a9.41,9.41,0,0,1,3.16-1.48,13.87,13.87,0,0,1,3.38-.49,14.8,14.8,0,0,1,3.39.29,10.6,10.6,0,0,1,3.23,1.2,1.17,1.17,0,0,1-.47,2.17Z"/><path class="cls-2" d="M49.33,32.81c-2.06,0-4-.06-5.95-.1-1,0-2,0-3-.09s-2-.09-3-.24h0a1.17,1.17,0,0,1-.46-2.16A9.65,9.65,0,0,1,40.11,29a13.39,13.39,0,0,1,3.4-.27,15,15,0,0,1,3.38.51,10.42,10.42,0,0,1,3.16,1.46,1.18,1.18,0,0,1,.26,1.64,1.21,1.21,0,0,1-.93.48Z"/></g></g></svg>