<svg xmlns="http://www.w3.org/2000/svg" viewBox="0 0 64 64"><defs><style>.cls-1,.cls-2{fill:#1a1a1a;}.cls-1{opacity:0;}.cls-3{fill:#fec92b;}.cls-4{fill:#fdaf18;}.cls-5{fill:#ffef80;}.cls-6{fill:#fff;}</style></defs><title>Face with open eyes and hand over mouth</title><g id="Layer_2" data-name="Layer 2"><g id="Rough"><rect class="cls-1" width="64" height="64"/><path class="cls-2" d="M49.05,2.6C44.11.75,38.89.5,34,.5H30.63C20.92.5,7.45,2,2.6,15c-2,5.42-2.14,10.94-2.09,17C.42,38.48.16,55.86,15,61.4c4.94,1.85,10.16,2.1,15.06,2.1h3.36c9.71,0,23.18-1.5,28-14.45,2-5.42,2.14-10.94,2.09-17C63.58,25.52,63.84,8.14,49.05,2.6Z"/><path class="cls-3" d="M59.49,32h0c.15-10.25-1.21-21.67-11.85-25.65C42.69,4.49,37.26,4.46,32,4.51h0C21.75,4.36,10.33,5.72,6.35,16.36,4.49,21.31,4.46,26.74,4.51,32h0C4.36,42.25,5.72,53.67,16.36,57.65c4.95,1.86,10.38,1.89,15.64,1.84h0c10.25.15,21.67-1.21,25.65-11.85C59.51,42.69,59.54,37.26,59.49,32Z"/><path class="cls-4" d="M32,54A46.35,46.35,0,0,1,6,45.79C7.48,51,10.52,55.47,16.36,57.65c4.95,1.86,10.38,1.89,15.64,1.84h0c10.25.15,21.67-1.21,25.65-11.85.25-.66.46-1.34.65-2A46.44,46.44,0,0,1,32,54Z"/><ellipse class="cls-4" cx="51" cy="39.49" rx="5.56" ry="3.55"/><ellipse class="cls-4" cx="13" cy="39.49" rx="5.56" ry="3.55"/><path class="cls-5" d="M42.7,51.37A2,2,0,0,0,40,50.59l-5.14,2.68,6.56-5a2,2,0,0,0,.44-2.81A2,2,0,0,0,39,45l-6.1,4.68,5.88-6.54a2,2,0,0,0-.08-2.84,2,2,0,0,0-2.85.12l-5.67,6.31,3.35-5.47a2,2,0,0,0-.6-2.78,2,2,0,0,0-2.78.64l-2.44,4a11.79,11.79,0,0,1-3.09,3.36h0A.88.88,0,0,1,23.26,46h0a.82.82,0,0,1,0-.41l.72-3.7a2,2,0,0,0-1.52-2.4,2,2,0,0,0-2.38,1.57l-1.93,9.82a11.43,11.43,0,0,0-.3,1.15A3.62,3.62,0,0,0,18.45,55l3.71,5.07a3.62,3.62,0,0,0,3.7,1.4A25.42,25.42,0,0,0,32.61,59l9.27-4.85A2,2,0,0,0,42.7,51.37Z"/><circle class="cls-6" cx="44.5" cy="31.37" r="7.78"/><circle class="cls-6" cx="19.5" cy="31.37" r="7.78"/><circle class="cls-2" cx="42.34" cy="31.37" r="4.52"/><circle class="cls-2" cx="21.66" cy="31.37" r="4.52"/><ellipse class="cls-4" cx="19.34" cy="15.76" rx="4.66" ry="2.79" transform="translate(-1.3 1.75) rotate(-5)"/><ellipse class="cls-4" cx="44.66" cy="15.76" rx="2.79" ry="4.66" transform="translate(25.07 58.87) rotate(-85)"/></g></g></svg>