<svg xmlns="http://www.w3.org/2000/svg" viewBox="0 0 64 64"><defs><style>.cls-1,.cls-2{fill:#1a1a1a;}.cls-1{opacity:0;}.cls-3{fill:#fec92b;}.cls-4{fill:#fdaf18;}.cls-5{fill:#fff;}.cls-6{fill:#c62d43;}.cls-7{fill:#1778ff;}.cls-8{fill:#37b9ff;}</style></defs><title>Rolling on the floor laughing</title><g id="Layer_2" data-name="Layer 2"><g id="Rough"><rect class="cls-1" width="64" height="64"/><path class="cls-2" d="M32.31,63.5c-8.51,0-15.47-6-20.58-11.31C7.84,48.37,4.39,44.77,2.22,40c-6-13.13,5.33-24.13,9.59-28.26C15.63,7.84,19.23,4.39,24,2.22A18.41,18.41,0,0,1,31.69.5c8.51,0,15.47,6,20.58,11.31,3.89,3.82,7.34,7.42,9.51,12.2,6,13.13-5.33,24.13-9.59,28.26-3.82,3.89-7.42,7.34-12.2,9.51A18.41,18.41,0,0,1,32.31,63.5Z"/><path class="cls-3" d="M49.4,14.6h0C43,8,34.92,1.64,25.66,5.86c-4.31,2-7.76,5.37-11.06,8.74h0C8,21,1.64,29.08,5.86,38.34c2,4.31,5.37,7.76,8.74,11.06h0C21,56,29.08,62.36,38.34,58.14c4.31-2,7.76-5.37,11.06-8.74h0C56,43,62.36,34.92,58.14,25.66,56.18,21.35,52.77,17.9,49.4,14.6Z"/><path class="cls-4" d="M45.91,45.91A41.48,41.48,0,0,1,24.24,57.22c4.29,2.35,9,3.24,14.1.92,4.31-2,7.76-5.37,11.06-8.74h0C56,43,62.36,34.92,58.14,25.66A18,18,0,0,0,57.27,24,41.6,41.6,0,0,1,45.91,45.91Z"/><ellipse class="cls-4" cx="48.77" cy="24.71" rx="4.98" ry="3.18" transform="translate(-3.19 41.73) rotate(-45)"/><ellipse class="cls-4" cx="24.71" cy="48.77" rx="4.98" ry="3.18" transform="translate(-27.25 31.76) rotate(-45)"/><path class="cls-5" d="M30.67,46.63c3.12-.34,7-2.36,10.28-5.68s5.34-7.16,5.68-10.28c-2.73,2.27-5.54,4.83-8.33,7.63S32.94,43.9,30.67,46.63Z"/><path class="cls-6" d="M44,43.84A16.93,16.93,0,0,0,39.61,51,13.29,13.29,0,0,0,51,39.5,17,17,0,0,0,44,43.84Z"/><path class="cls-2" d="M46.64,30.67h0c-.34,3.12-2.36,7-5.68,10.28s-7.16,5.34-10.28,5.68h0a1.8,1.8,0,0,0,.47,2.71A13.36,13.36,0,0,0,39.61,51h0A18,18,0,0,1,51,39.5a13.36,13.36,0,0,0-1.66-8.36A1.8,1.8,0,0,0,46.64,30.67Z"/><ellipse class="cls-4" cx="32.06" cy="18.97" rx="4.17" ry="2.5" transform="translate(-0.39 37.25) rotate(-60)"/><ellipse class="cls-4" cx="18.97" cy="32.06" rx="4.17" ry="2.5" transform="translate(-13.49 13.78) rotate(-30)"/><path class="cls-2" d="M46.64,25.44a11.82,11.82,0,0,0-2.09.72,14,14,0,0,0-2,1.08,15.41,15.41,0,0,0-3.42,3h0l-.25.2a1.92,1.92,0,0,1-3.13-1.21,8,8,0,0,1-.08-1c0-.29,0-.57,0-.86a12.85,12.85,0,0,1,.23-1.65A11.92,11.92,0,0,1,37,22.6,12.59,12.59,0,0,1,38.84,20a14.76,14.76,0,0,1,2.32-2.09,1.36,1.36,0,0,1,1.76,2.06l-.06.06a11.71,11.71,0,0,0-1.66,1.88A9.06,9.06,0,0,0,40.06,24a8.28,8.28,0,0,0-.52,2.28,8.88,8.88,0,0,0,0,1.15c0,.18,0,.37.06.54a1.7,1.7,0,0,0,.08.42l-3.38-1h0a19.71,19.71,0,0,1,4.66-3.1,17.34,17.34,0,0,1,2.6-1,14.72,14.72,0,0,1,2.81-.56,1.36,1.36,0,0,1,.43,2.67Z"/><path class="cls-7" d="M52.34,19.24a4.14,4.14,0,1,1,0,8.27c-2.28,0-7.58-1.85-7.58-4.14S50.06,19.24,52.34,19.24Z"/><path class="cls-2" d="M22.74,46.34a14.72,14.72,0,0,1,.56-2.81,17.34,17.34,0,0,1,1-2.6,19.51,19.51,0,0,1,3.1-4.66h0l1,3.38a1.7,1.7,0,0,0-.42-.08c-.17,0-.36,0-.54-.06a8.88,8.88,0,0,0-1.15,0,8.28,8.28,0,0,0-2.28.52,9.06,9.06,0,0,0-2.12,1.14A11.71,11.71,0,0,0,20,42.86l-.06.06a1.36,1.36,0,0,1-2.06-1.76A14.76,14.76,0,0,1,20,38.84,12.59,12.59,0,0,1,22.6,37a11.92,11.92,0,0,1,3.1-1.1,12.85,12.85,0,0,1,1.65-.23c.29,0,.57,0,.86,0a8,8,0,0,1,1,.08,1.92,1.92,0,0,1,1.63,2.18,1.87,1.87,0,0,1-.42,1l-.2.25h0a15.41,15.41,0,0,0-3,3.42,14,14,0,0,0-1.08,2,11.82,11.82,0,0,0-.72,2.09l0,.13a1.36,1.36,0,0,1-2.67-.43Z"/><path class="cls-7" d="M27.51,52.34a4.14,4.14,0,1,1-8.27,0c0-2.28,1.85-7.58,4.13-7.58S27.51,50.06,27.51,52.34Z"/><path class="cls-8" d="M49.5,25.3a4.14,4.14,0,0,0,3.6-3.6,2.67,2.67,0,0,0-1-2.45c-2.4.12-7.33,1.92-7.33,4.12a1.78,1.78,0,0,0,.29.92A8.91,8.91,0,0,0,49.5,25.3Z"/><path class="cls-8" d="M19.25,52.09a2.67,2.67,0,0,0,2.45,1,4.14,4.14,0,0,0,3.6-3.6,8.91,8.91,0,0,0-1-4.45,1.78,1.78,0,0,0-.92-.29C21.17,44.76,19.37,49.69,19.25,52.09Z"/></g></g></svg>