<svg xmlns="http://www.w3.org/2000/svg" viewBox="0 0 64 64"><defs><style>.cls-1,.cls-2{fill:#1a1a1a;}.cls-1{opacity:0;}.cls-3{fill:#fec92b;}.cls-4{fill:#fdaf18;}.cls-5{fill:#ff608a;}.cls-6{fill:#ee4572;}</style></defs><title>Face savoring food</title><g id="Layer_2" data-name="Layer 2"><g id="Rough"><rect class="cls-1" width="64" height="64"/><path class="cls-2" d="M49.05,2.6C44.11.75,38.89.5,34,.5H30.63C20.92.5,7.45,2,2.6,15c-2,5.42-2.14,10.94-2.09,17C.42,38.48.16,55.86,15,61.4c4.94,1.85,10.16,2.1,15.06,2.1h3.36c9.71,0,23.18-1.5,28-14.45,2-5.42,2.14-10.94,2.09-17C63.58,25.52,63.84,8.14,49.05,2.6Z"/><path class="cls-3" d="M59.49,32h0c.15-10.25-1.21-21.67-11.85-25.65C42.69,4.49,37.26,4.46,32,4.51h0C21.75,4.36,10.33,5.72,6.35,16.36,4.49,21.31,4.46,26.74,4.51,32h0C4.36,42.25,5.72,53.67,16.36,57.65c4.95,1.86,10.38,1.89,15.64,1.84h0c10.25.15,21.67-1.21,25.65-11.85C59.51,42.69,59.54,37.26,59.49,32Z"/><path class="cls-4" d="M32,54A46.35,46.35,0,0,1,6,45.79C7.48,51,10.52,55.47,16.36,57.65c4.95,1.86,10.38,1.89,15.64,1.84h0c10.25.15,21.67-1.21,25.65-11.85.25-.66.46-1.34.65-2A46.44,46.44,0,0,1,32,54Z"/><ellipse class="cls-4" cx="51" cy="37.49" rx="5.56" ry="3.55"/><ellipse class="cls-4" cx="13" cy="37.49" rx="5.56" ry="3.55"/><path class="cls-2" d="M26,34.11a6.47,6.47,0,0,0-5.49-3.3A6.48,6.48,0,0,0,15,34.11l0,0a.85.85,0,0,1-1.18.26.87.87,0,0,1-.4-.65,6.21,6.21,0,0,1,1.95-4.86,7.39,7.39,0,0,1,10.32,0,6.21,6.21,0,0,1,1.95,4.86.86.86,0,0,1-.93.78.83.83,0,0,1-.65-.39Z"/><path class="cls-2" d="M49,34.11a6.22,6.22,0,0,0-11,0l0,0a.86.86,0,0,1-1.19.26.88.88,0,0,1-.39-.65,6.21,6.21,0,0,1,2-4.86,7.39,7.39,0,0,1,10.32,0,6.21,6.21,0,0,1,2,4.86.86.86,0,0,1-.94.78.83.83,0,0,1-.64-.39Z"/><ellipse class="cls-4" cx="19.34" cy="18.76" rx="4.66" ry="2.79" transform="translate(-1.56 1.76) rotate(-5)"/><ellipse class="cls-4" cx="44.66" cy="18.76" rx="2.79" ry="4.66" transform="translate(22.08 61.61) rotate(-85)"/><path class="cls-5" d="M36.35,50.39l1.73,2a6.72,6.72,0,0,0,10.1-8.86l-1.73-2Z"/><path class="cls-6" d="M40.55,47a13.61,13.61,0,0,1,5.71,2.62.35.35,0,0,0,.57-.35,6.57,6.57,0,0,0-4.17-4.34.37.37,0,0,0-.35,0l-1.89,1.41A.35.35,0,0,0,40.55,47Z"/><path class="cls-6" d="M38.08,52.35a6.71,6.71,0,0,0,9.48.62c.15-.13.28-.27.42-.41a8.17,8.17,0,0,1-10.35-3.29l-1.28,1.12Z"/><path class="cls-2" d="M17.84,40.15a12.14,12.14,0,0,0,6,5.5,20.12,20.12,0,0,0,16.19,0,12.12,12.12,0,0,0,6-5.5l0,0a.84.84,0,0,1,1.12-.38.83.83,0,0,1,.45.85,10,10,0,0,1-2,4.71,14,14,0,0,1-3.86,3.41,19.34,19.34,0,0,1-19.51,0,13.81,13.81,0,0,1-3.86-3.41,10.1,10.1,0,0,1-2-4.71.84.84,0,0,1,1.58-.47Z"/></g></g></svg>